<svg id="Capa_1" enable-background="new 0 0 511.999 511.999" height="512" viewBox="0 0 511.999 511.999" width="512" xmlns="http://www.w3.org/2000/svg"><path d="m313.463 311.506h-98.203l2.012-3.146c10.903-17.049 13.262-38.198 6.382-57.23h81.415c-6.88 19.032-4.521 40.181 6.382 57.23z" fill="#b7afb9"/><path d="m311.452 308.361c-10.903-17.049-13.262-38.198-6.382-57.23h-33.575c-6.88 19.032-4.521 40.181 6.382 57.23l2.012 3.145h33.575z" fill="#a79fa9"/><path d="m470.035 274.22c-136.79-13.358-274.556-13.358-411.346 0-4.935.482-9.21-3.396-9.21-8.354v-250.096c0-4.958 4.275-8.836 9.21-8.354 136.79 13.358 274.556 13.358 411.346 0 4.935-.482 9.21 3.396 9.21 8.354v250.096c-.001 4.959-4.276 8.836-9.21 8.354z" fill="#d5f1fe"/><path d="m470.035 7.416c-8.119.793-16.241 1.535-24.366 2.234v262.337c8.125.699 16.247 1.441 24.366 2.234 4.935.482 9.21-3.396 9.21-8.354v-250.097c-.001-4.958-4.276-8.836-9.21-8.354z" fill="#b4e7fd"/><path d="m59.505 237.98-10.026.979v26.907c0 4.958 4.275 8.836 9.21 8.354 136.79-13.358 274.556-13.358 411.346 0 4.935.482 9.21-3.396 9.21-8.354v-26.907l-10.026-.979c-136.248-13.305-273.467-13.305-409.714 0z" fill="#e5e2e6"/><path d="m469.218 237.98c-7.846-.766-15.697-1.483-23.549-2.161v34.544c0 .551-.042 1.087-.101 1.615 8.159.701 16.315 1.447 24.467 2.243 4.935.482 9.21-3.396 9.21-8.354v-26.907z" fill="#d6d1d7"/><path d="m316.881 301.431h-105.038c-7.961 0-15.808 1.887-22.898 5.506l-46.943 23.963c-1.405.717-2.289 2.161-2.289 3.738v1.207c0 4.636 3.758 8.394 8.394 8.394h232.51c4.636 0 8.394-3.758 8.394-8.394v-1.207c0-1.577-.884-3.021-2.289-3.738l-46.943-23.963c-7.09-3.618-14.938-5.506-22.898-5.506z" fill="#e5e2e6"/><path d="m386.722 330.901-46.943-23.963c-7.09-3.619-14.937-5.506-22.898-5.506h-33.575c7.961 0 15.808 1.887 22.898 5.506l46.943 23.963c1.405.717 2.289 2.161 2.289 3.738v1.208c0 4.636-3.758 8.394-8.394 8.394h33.575c4.636 0 8.394-3.758 8.394-8.394v-1.208c-.001-1.577-.885-3.021-2.289-3.738z" fill="#d6d1d7"/><path d="m409.626 407.739h83.266l-5.626 87.673c-.332 5.178-4.629 9.208-9.818 9.208h-52.377c-5.189 0-9.486-4.03-9.818-9.208z" fill="#e5646e"/><path d="m462.892 407.739-5.626 87.673c-.332 5.178-4.629 9.208-9.818 9.208h30c5.189 0 9.486-4.03 9.818-9.208l5.626-87.673z" fill="#e04955"/><path d="m485.082 394.613h-67.646v-18.652c0-5.434 4.405-9.838 9.838-9.838h47.97c5.434 0 9.838 4.405 9.838 9.838z" fill="#e5646e"/><path d="m475.244 366.123h-30c5.434 0 9.838 4.405 9.838 9.838v18.652h30v-18.652c0-5.433-4.404-9.838-9.838-9.838z" fill="#e04955"/><path d="m494.579 417.065h-86.639c-2.717 0-4.919-2.202-4.919-4.919v-14.716c0-2.717 2.202-4.919 4.919-4.919h86.639c2.717 0 4.919 2.202 4.919 4.919v14.716c0 2.717-2.202 4.919-4.919 4.919z" fill="#3567c3"/><path d="m494.579 392.51h-30c2.717 0 4.919 2.202 4.919 4.919v14.716c0 2.717-2.202 4.919-4.919 4.919h30c2.717 0 4.919-2.202 4.919-4.919v-14.716c0-2.716-2.202-4.919-4.919-4.919z" fill="#2d56a1"/><path d="m22.775 353.941h129.504l-8.751 136.357c-.517 8.054-7.2 14.322-15.27 14.322h-81.463c-8.07 0-14.753-6.268-15.27-14.322z" fill="#e5e2e6"/><path d="m70.879 490.298-8.75-136.357h-39.354l8.751 136.357c.517 8.054 7.2 14.322 15.27 14.322h39.353c-8.071 0-14.753-6.268-15.27-14.322z" fill="#e5646e"/><path d="m112.925 353.941-8.75 136.357c-.517 8.054-7.2 14.322-15.27 14.322h39.353c8.07 0 14.753-6.268 15.27-14.322l8.751-136.357z" fill="#e5646e"/><path d="m122.278 353.941-8.751 136.357c-.517 8.054-7.2 14.322-15.27 14.322h30c8.07 0 14.753-6.268 15.27-14.322l8.751-136.357z" fill="#e04955"/><circle cx="190.521" cy="398.686" fill="#e5e2e6" r="15.084"/><path d="m190.521 383.602c-2.134 0-4.16.448-6 1.247 5.343 2.321 9.084 7.639 9.084 13.836s-3.74 11.516-9.084 13.836c1.84.799 3.866 1.247 6 1.247 8.33 0 15.084-6.753 15.084-15.084 0-8.329-6.754-15.082-15.084-15.082z" fill="#d6d1d7"/><circle cx="214.541" cy="347.015" fill="#d6d1d7" r="15.084"/><path d="m214.541 331.932c-2.133 0-4.16.448-6 1.247 5.343 2.321 9.084 7.639 9.084 13.836s-3.74 11.516-9.084 13.836c1.84.799 3.867 1.247 6 1.247 8.33 0 15.084-6.753 15.084-15.084 0-8.329-6.754-15.082-15.084-15.082z" fill="#c7c0c8"/><path d="m152.39 340.581c0-10.41-5.725-19.479-14.195-24.244 1.755-2.465 2.798-5.473 2.798-8.73 0-8.33-6.753-15.084-15.084-15.084-5.918 0-11.026 3.417-13.496 8.378-4.638-3.467-10.394-5.52-16.63-5.52-7.704 0-14.675 3.134-19.711 8.196-2.765-3.441-7.001-5.648-11.758-5.648-7.153 0-13.13 4.985-14.68 11.666-14.942.473-26.912 12.726-26.912 27.783 0 2.261.784 7.287.784 7.287h128.884c0 .001 0-2.946 0-4.084z" fill="#e5e2e6"/><path d="m138.195 316.337c1.755-2.465 2.798-5.473 2.798-8.73 0-8.33-6.753-15.084-15.083-15.084-5.918 0-11.026 3.417-13.497 8.378-1.509-1.128-3.146-2.087-4.869-2.894 2.154 2.608 3.449 5.953 3.449 9.599 0 3.257-1.043 6.265-2.798 8.73 8.47 4.765 14.195 13.834 14.195 24.244v4.085h30s0-2.948 0-4.085c0-10.409-5.725-19.478-14.195-24.243z" fill="#d6d1d7"/><path d="m154.902 368.445h-134.751c-4.225 0-7.651-3.425-7.651-7.651v-13.707c0-4.225 3.425-7.651 7.651-7.651h134.751c4.225 0 7.651 3.425 7.651 7.651v13.707c0 4.226-3.426 7.651-7.651 7.651z" fill="#3567c3"/><path d="m154.902 339.436h-30c4.225 0 7.651 3.425 7.651 7.651v13.707c0 4.225-3.425 7.651-7.651 7.651h30c4.225 0 7.651-3.425 7.651-7.651v-13.707c0-4.225-3.426-7.651-7.651-7.651z" fill="#2d56a1"/><path d="m307.296 111.902-77.998-45.032c-6.559-3.787-14.757.947-14.757 8.52v90.064c0 7.574 8.199 12.307 14.757 8.52l77.998-45.032c6.559-3.786 6.559-13.253 0-17.04z" fill="#e5646e"/><path d="m307.296 111.902-77.998-45.032c-6.559-3.787-14.758.947-14.758 8.52v6.054l52.755 30.458c6.559 3.787 6.559 13.254 0 17.04l-52.755 30.458v6.053c0 7.574 8.199 12.307 14.758 8.52l77.998-45.032c6.559-3.785 6.559-13.252 0-17.039z" fill="#e04955"/><path d="m49.479 189.188c4.076 0 7.379-3.303 7.379-7.379v-166.039c0-.588.527-1.071 1.115-1.01 136.949 13.374 275.83 13.374 412.781 0 .586-.054 1.113.417 1.113 1.01v36.304c0 4.076 3.303 7.379 7.379 7.379s7.379-3.303 7.379-7.379v-36.304c0-9.189-8.169-16.571-17.305-15.698-135.999 13.282-273.912 13.282-409.911 0-9.139-.885-17.309 6.517-17.309 15.698v166.039c0 4.076 3.303 7.379 7.379 7.379z"/><path d="m396.39 334.639c0-4.37-2.418-8.32-6.313-10.31l-46.943-23.963c-8.092-4.13-17.169-6.313-26.253-6.313h-4.439c-2.713-7.021-4.02-14.469-3.859-21.978 53.719 1.122 107.374 4.279 160.735 9.49 9.137.874 17.305-6.511 17.305-15.698v-26.929c0-.01 0-.021 0-.031v-152.399c0-4.076-3.303-7.379-7.379-7.379s-7.379 3.303-7.379 7.379v144.316l-1.93-.188c-136.408-13.32-274.737-13.32-411.147 0l-1.93.188v-14.581c0-4.076-3.303-7.379-7.379-7.379s-7.379 3.303-7.379 7.379v22.663.031 26.929c0 9.186 8.168 16.577 17.305 15.698 53.361-5.211 107.017-8.368 160.735-9.49.16 7.509-1.146 14.957-3.859 21.978h-4.44c-9.084 0-18.162 2.183-26.252 6.313l-34.163 17.439c-1.2-1.408-2.515-2.73-3.941-3.945.586-2.016.886-4.115.886-6.253 0-12.386-10.077-22.463-22.462-22.463-5.849 0-11.295 2.225-15.379 6.083-4.584-2.122-9.581-3.224-14.748-3.224-7.082 0-13.841 2.077-19.586 5.944-3.517-2.2-7.611-3.396-11.883-3.396-8.616 0-16.217 4.811-19.979 12.189-15.112 2.643-26.718 14.758-28.691 30.011-6.091 1.92-10.521 7.619-10.521 14.336v13.707c0 7.12 4.981 13.085 11.637 14.629l7.402 115.348c.764 11.903 10.706 21.227 22.634 21.227h81.462c11.928 0 21.87-9.324 22.634-21.227l7.402-115.348c6.657-1.544 11.637-7.509 11.637-14.629v-9.175h22.624c2.13 10.184 11.178 17.858 21.986 17.858s19.855-7.674 21.986-17.858h75.879c4.076 0 7.379-3.303 7.379-7.379s-3.303-7.379-7.379-7.379h-77.838c-3.714-7.297-11.294-12.309-20.026-12.309s-16.312 5.013-20.026 12.309h-28.629c-1.878-2.016-4.298-3.512-7.031-4.259-.138-.601-.291-1.196-.46-1.786l33.906-17.308c6.022-3.074 12.779-4.699 19.542-4.699h9.213c.023 0 .047.004.07.004.018 0 .037-.004.055-.004h86.364c.018 0 .036.004.055.004.023 0 .047-.004.07-.004h9.212c6.762 0 13.52 1.625 19.543 4.699l44.989 22.966c-.185.235-.474.386-.796.386h-33.778c-4.076 0-7.379 3.303-7.379 7.379s3.303 7.379 7.379 7.379h33.777c8.697 0 15.773-7.076 15.773-15.773zm-307.486 162.602h-2.756c-4.166 0-7.639-3.257-7.906-7.415l-7.316-114.002h33.201l-7.316 114.002c-.267 4.158-3.74 7.415-7.907 7.415zm-68.753-136.174c-.15 0-.272-.122-.272-.272v-13.707c0-.15.122-.272.272-.272h134.751c.15 0 .272.122.272.272v13.707c0 .15-.122.272-.272.272zm29.715-44.096c3.343-.106 6.198-2.448 6.954-5.707.814-3.507 3.895-5.956 7.493-5.956 2.34 0 4.53 1.054 6.006 2.891 2.71 3.376 7.928 3.656 10.983.583 3.864-3.883 9.007-6.022 14.481-6.022 4.444 0 8.667 1.401 12.214 4.052 3.636 2.717 9.005 1.431 11.023-2.623 1.315-2.644 3.956-4.287 6.89-4.287 4.249 0 7.704 3.457 7.704 7.705 0 1.598-.495 3.136-1.43 4.45-2.508 3.52-1.369 8.594 2.392 10.71 3.373 1.898 6.053 4.631 7.856 7.862.007.014.012.028.019.042.067.132.145.255.219.381.174.33.337.666.492 1.005h-112.35c2.263-8.507 9.814-14.794 19.054-15.086zm-10.978 172.855-7.316-114.002h24.567l7.377 114.947c.145 2.266.628 4.437 1.389 6.47h-18.11c-4.166 0-7.64-3.257-7.907-7.415zm89.37 7.415h-18.108c.761-2.033 1.243-4.204 1.389-6.47l7.377-114.947h24.566l-7.316 114.002c-.268 4.158-3.742 7.415-7.908 7.415zm86.283-157.931c4.249 0 7.704 3.457 7.704 7.705 0 4.249-3.456 7.704-7.704 7.704s-7.704-3.456-7.704-7.704c0-.28.017-.556.046-.828.104-.382.186-.773.227-1.176.886-3.278 3.877-5.701 7.431-5.701zm-156.57-72.434c-.586.057-1.114-.419-1.114-1.01v-20.214l3.364-.328c135.459-13.228 272.824-13.228 408.28 0l3.364.328v20.214c0 .586-.527 1.073-1.115 1.01-55.91-5.46-112.143-8.688-168.434-9.69-.315-.023-.627-.031-.936-.014-24.631-.427-49.273-.428-73.904-.002-.388-.028-.783-.017-1.181.018-56.254 1.004-112.45 4.232-168.324 9.688zm176.925 4.94c19.642-.273 39.289-.273 58.932 0-.156 7.54.869 15.03 3.03 22.236h-64.991c2.16-7.206 3.185-14.696 3.029-22.236z"/><path d="m494.579 385.131h-2.118v-9.17c0-9.493-7.724-17.217-17.217-17.217h-16.606v-15.194c0-5.292-2.061-10.267-5.803-14.01l-19.553-19.553c-2.882-2.88-7.554-2.88-10.436 0-2.881 2.882-2.881 7.554 0 10.436l19.553 19.553c.956.955 1.482 2.224 1.482 3.574v15.194h-16.606c-9.493 0-17.217 7.724-17.217 17.217v9.17h-2.118c-6.781 0-12.298 5.517-12.298 12.298v14.716c0 5.119 3.145 9.513 7.603 11.362l4.645 72.377c.58 9.036 8.127 16.114 17.182 16.114h52.377c9.056 0 16.603-7.079 17.182-16.114l4.646-72.377c4.458-1.849 7.602-6.243 7.602-11.362v-14.716c-.002-6.781-5.519-12.298-12.3-12.298zm-84.18 24.555v-9.797h81.721v9.797zm14.416-33.724c0-1.357 1.103-2.46 2.46-2.46h47.97c1.357 0 2.46 1.103 2.46 2.46v9.17h-52.889v-9.17zm52.632 121.279h-52.377c-1.293 0-2.372-1.011-2.455-2.302l-4.524-70.496h66.335l-4.525 70.497c-.081 1.29-1.159 2.301-2.454 2.301z"/><path d="m190.521 376.224c-12.385 0-22.462 10.077-22.462 22.462 0 12.386 10.077 22.463 22.462 22.463 12.386 0 22.463-10.077 22.463-22.463s-10.077-22.462-22.463-22.462zm0 30.167c-4.249 0-7.704-3.457-7.704-7.705 0-4.249 3.456-7.704 7.704-7.704 4.249 0 7.705 3.456 7.705 7.704s-3.457 7.705-7.705 7.705z"/><path d="m232.988 60.48c-5.681-3.279-12.77-3.021-18.218.623-4.753 3.179-7.607 8.574-7.607 14.287v90.064c0 5.767 2.908 11.201 7.731 14.37 5.391 3.542 12.503 3.77 18.095.541l77.998-45.032c5.315-3.068 8.609-8.775 8.609-14.91s-3.294-11.842-8.609-14.91zm70.619 62.072-77.998 45.032c-1.625.939-3.689-.263-3.689-2.13v-90.064c0-1.864 2.062-3.069 3.689-2.13l77.998 45.032c1.621.936 1.622 3.324 0 4.26z"/></svg>