<svg id="Capa_1" enable-background="new 0 0 512 512" height="512" viewBox="0 0 512 512" width="512" xmlns="http://www.w3.org/2000/svg"><g><path d="m504.485 353.998v-272.971c0-11.609-9.411-21.02-21.021-21.02h-454.929c-11.609 0-21.021 9.411-21.021 21.02v272.971z" fill="#ffc265"/><path d="m7.515 335.963h496.97v18.035h-496.97z" fill="#ffb541"/><path d="m7.515 353.998v77.546c0 11.293 9.155 20.449 20.449 20.449h456.072c11.294 0 20.449-9.156 20.449-20.449v-77.546z" fill="#8c808a"/><path d="m484.036 433.958h-456.072c-11.294 0-20.449-9.156-20.449-20.449v18.035c0 11.293 9.155 20.449 20.449 20.449h456.072c11.294 0 20.449-9.156 20.449-20.449v-18.035c0 11.293-9.155 20.449-20.449 20.449z" fill="#7b7179"/><ellipse cx="211.773" cy="402.996" fill="#ff4755" rx="23.098" ry="23.098" transform="matrix(.992 -.129 .129 .992 -50.124 30.621)"/><path d="m211.773 408.059c-9.557 0-17.758-5.805-21.271-14.081-1.176 2.771-1.827 5.818-1.827 9.018 0 12.757 10.341 23.098 23.098 23.098s23.098-10.342 23.098-23.098c0-3.2-.651-6.247-1.827-9.018-3.513 8.276-11.714 14.081-21.271 14.081z" fill="#fc2b3a"/><circle cx="255.86" cy="206.164" fill="#ff4755" r="97.454"/><path d="m255.86 285.583c-50.781 0-92.484-38.842-97.035-88.437-.273 2.97-.419 5.977-.419 9.018 0 53.822 43.632 97.454 97.454 97.454s97.454-43.632 97.454-97.454c0-3.041-.147-6.048-.419-9.018-4.551 49.594-46.253 88.437-97.035 88.437z" fill="#fc2b3a"/><path d="m237.239 253.841 61.588-39.006c4.498-2.849 4.498-9.411 0-12.259l-61.588-39.006c-4.831-3.06-11.138.411-11.138 6.13v78.011c0 5.719 6.307 9.19 11.138 6.13z" fill="#e6e2e6"/><path d="m298.827 202.576-4.56-2.888-57.028 36.118c-4.831 3.06-11.138-.411-11.138-6.13v18.035c0 5.718 6.307 9.189 11.138 6.13l61.588-39.006c4.498-2.848 4.498-9.41 0-12.259z" fill="#d8d1d7"/><g><path d="m455.965 402.996c0-4.15-3.364-7.515-7.515-7.515h-207.001c-3.359-13.258-15.389-23.098-29.676-23.098-14.288 0-26.318 9.84-29.677 23.098h-118.546c-4.15 0-7.515 3.365-7.515 7.515s3.365 7.515 7.515 7.515h118.546c3.359 13.258 15.389 23.098 29.677 23.098 14.287 0 26.318-9.84 29.676-23.098h207.001c4.151-.001 7.515-3.365 7.515-7.515zm-244.192 15.583c-8.593 0-15.584-6.991-15.584-15.584s6.991-15.584 15.584-15.584c8.592 0 15.583 6.991 15.583 15.584 0 8.594-6.991 15.584-15.583 15.584z"/><path d="m183.755 259.932c-2.483-3.325-7.192-4.006-10.518-1.523-3.325 2.484-4.007 7.193-1.523 10.518 20.037 26.823 50.707 42.206 84.146 42.206 57.88 0 104.969-47.089 104.969-104.969s-47.089-104.969-104.969-104.969-104.969 47.089-104.969 104.969c0 11.51 1.853 22.827 5.508 33.638 1.329 3.931 5.593 6.039 9.526 4.712 3.931-1.329 6.041-5.594 4.712-9.526-3.13-9.256-4.716-18.954-4.716-28.823 0-49.593 40.347-89.94 89.94-89.94s89.939 40.347 89.939 89.94-40.346 89.94-89.939 89.94c-28.653-.001-54.934-13.185-72.106-36.173z"/><path d="m233.356 262.482c2.783 0 5.555-.799 7.904-2.293l61.588-39.005c4.251-2.692 6.868-7.447 6.868-12.478 0-5.032-2.617-9.786-6.868-12.479l-61.588-39.006c-4.548-2.88-10.306-3.058-15.025-.461-4.718 2.596-7.649 7.555-7.649 12.94v78.011c.001 8.041 6.714 14.771 14.77 14.771zm.26-92.311 60.844 38.535-60.845 38.535z"/><path d="m483.465 52.492h-357.353c-4.15 0-7.515 3.365-7.515 7.515s3.364 7.515 7.515 7.515h357.353c7.447 0 13.506 6.059 13.506 13.506v265.456h-481.942v-265.457c0-7.447 6.059-13.506 13.506-13.506h67.518c4.15 0 7.515-3.365 7.515-7.515s-3.365-7.515-7.515-7.515h-67.518c-15.734.001-28.535 12.802-28.535 28.536v350.517c0 15.419 12.544 27.964 27.964 27.964h331.446c4.151 0 7.515-3.365 7.515-7.515s-3.364-7.515-7.515-7.515h-331.446c-7.132 0-12.934-5.802-12.934-12.934v-70.031h481.941v70.031c0 7.132-5.802 12.934-12.934 12.934h-94.568c-4.151 0-7.515 3.365-7.515 7.515s3.364 7.515 7.515 7.515h94.568c15.42 0 27.964-12.545 27.964-27.964v-350.517c-.001-15.734-12.801-28.535-28.536-28.535z"/></g></g></svg>