<svg height="512pt" viewBox="0 0 512 512" width="512pt" xmlns="http://www.w3.org/2000/svg"><path d="m434.160156 414.609375c-20.929687 3.089844-112.441406 12.507813-201.289062-41.648437-18.035156-10.996094-41.214844-8.421876-56.148438 6.515624l-27.464844 27.460938-55.152343-55.152344 28.675781-28.679687c14.730469-14.726563 17.457031-37.496094 6.929688-55.46875-51.5625-88.035157-45.480469-179.011719-43.144532-200.464844 1.21875-11.015625 14.746094-15.84375 22.636719-7.953125l332.621094 332.621094c8.070312 8.070312 2.742187 21.230468-7.664063 22.769531zm0 0" fill="#e6e6e6"/><path d="m441.824219 391.839844-332.625-332.621094c-7.761719-7.765625-20.980469-3.207031-22.558594 7.441406l325.183594 325.179688c8.070312 8.070312 2.742187 21.230468-7.664063 22.769531-4.757812.703125-13.171875 1.730469-24.363281 2.265625 26.292969 1.21875 45.984375-1.027344 54.363281-2.265625 10.40625-1.539063 15.734375-14.699219 7.664063-22.769531zm0 0" fill="#ccc"/><path d="m306.285156 256.308594-61.550781-61.550782 71.390625-51.046874c6.386719-4.566407 15.140625-3.847657 20.691406 1.707031l18.808594 18.808593c5.550781 5.550782 6.273438 14.304688 1.707031 20.691407zm0 0" fill="#5788a1"/><path d="m355.625 164.226562-18.808594-18.808593c-5.550781-5.550781-14.304687-6.273438-20.691406-1.707031l-6.421875 4.59375 15.921875 15.921874c5.550781 5.550782 6.273438 14.304688 1.707031 20.691407l-38.539062 53.898437 17.492187 17.492188 51.046875-71.390625c4.566407-6.386719 3.84375-15.140625-1.707031-20.691407zm0 0" fill="#507d94"/><path d="m500.5 504.5h-489c-2.210938 0-4-1.789062-4-4v-11.210938c0-8.167968 6.621094-14.789062 14.789062-14.789062h467.417969c8.171875 0 14.792969 6.621094 14.792969 14.789062v11.210938c0 2.210938-1.789062 4-4 4zm0 0" fill="#e6e6e6"/><path d="m489.707031 474.5h-30c8.171875 0 14.792969 6.621094 14.792969 14.789062v11.210938c0 2.210938-1.789062 4-4 4h30c2.210938 0 4-1.789062 4-4v-11.210938c0-8.167968-6.621094-14.789062-14.792969-14.789062zm0 0" fill="#ccc"/><path d="m186 474.5h-124l19.605469-119.425781c1.191406-7.25 7.457031-12.574219 14.808593-12.574219h55.175782c7.347656 0 13.613281 5.324219 14.804687 12.574219zm0 0" fill="#54849c"/><path d="m166.394531 355.074219c-1.191406-7.25-7.457031-12.574219-14.808593-12.574219h-30c7.351562 0 13.617187 5.324219 14.808593 12.574219l19.605469 119.425781h30zm0 0" fill="#507d94"/><path d="m141 391.5c0 9.390625-7.609375 17-17 17s-17-7.609375-17-17 7.609375-17 17-17 17 7.609375 17 17zm0 0" fill="#e6e6e6"/><path d="m489.710938 467h-233.710938c-4.144531 0-7.5 3.359375-7.5 7.5s3.355469 7.5 7.5 7.5h233.710938c4.019531 0 7.289062 3.269531 7.289062 7.292969v7.707031h-482v-7.707031c0-4.023438 3.269531-7.292969 7.289062-7.292969h201.902344c4.144532 0 7.5-3.359375 7.5-7.5s-3.355468-7.5-7.5-7.5h-31.820312l-13.054688-79.511719 2.707032-2.707031c12.453124-12.449219 31.757812-14.675781 46.945312-5.417969 64.339844 39.222657 142.992188 52.011719 206.289062 42.667969 16.480469-2.4375 24.332032-23.042969 11.867188-35.496094l-131.039062-131.039062 47.347656-66.214844c6.726562-9.410156 5.675781-22.175781-2.503906-30.355469l-18.8125-18.808593c-8.179688-8.183594-20.945313-9.234376-30.355469-2.507813l-4.480469 3.203125c-3.367188 2.410156-4.144531 7.09375-1.738281 10.464844 2.410156 3.371094 7.097656 4.148437 10.464843 1.738281l4.476563-3.203125c3.417969-2.445312 8.058594-2.0625 11.027344.910156l18.808593 18.808594c2.972657 2.972656 3.355469 7.609375.910157 11.027344l-45.898438 64.1875-49.035156-49.035156 33.699219-24.097657c3.371094-2.410156 4.148437-7.09375 1.738281-10.464843-2.40625-3.367188-7.09375-4.144532-10.460937-1.738282l-35.730469 25.550782-65.582031-65.585938c-2.929688-2.929688-7.679688-2.929688-10.609376 0-2.925781 2.929688-2.925781 7.679688 0 10.605469 12.113282 12.113281 253.304688 253.300781 267.167969 267.167969 3.617188 3.613281.996094 9.382812-3.457031 10.042968-56.476562 8.339844-132.488281-1.746094-196.289062-40.632812-19.1875-11.699219-43.125-10.183594-60.367188 3.210937l-2.609375-15.910156c-1.796875-10.925781-11.136719-18.859375-22.210937-18.859375h-30.09375l6.589843-6.585938c17.050781-17.050781 20.378907-43.605468 8.097657-64.574218-36.636719-62.558594-48.433594-138.257813-42.15625-195.851563.515624-4.679687 6.378906-6.957031 9.871093-3.464843l42.839844 42.835937c2.929687 2.929687 7.675781 2.929687 10.605469 0 2.929687-2.925781 2.929687-7.675781 0-10.605469l-42.835938-42.835937c-12.34375-12.339844-33.492187-4.828125-35.390625 12.441406-2.796875 25.65625-7.882812 116.269531 44.125 205.0625 8.832031 15.085937 6.464844 34.160156-5.761719 46.382813l-17.203124 17.195312h-3.859376c-11.074218 0-20.417968 7.933594-22.210937 18.859375l-18.574219 113.140625h-33.339844c-12.289062 0-22.289062 10-22.289062 22.292969v11.207031c0 6.339844 5.160156 11.5 11.5 11.5h489c6.339844 0 11.5-5.160156 11.5-11.5v-11.207031c0-12.292969-10-22.292969-22.289062-22.292969zm-400.703126-110.710938c.597657-3.644531 3.710938-6.289062 7.40625-6.289062h55.175782c3.691406 0 6.808594 2.644531 7.402344 6.289062l18.175781 110.710938h-106.335938zm0 0"/><path d="m124 367c-13.511719 0-24.5 10.992188-24.5 24.5s10.988281 24.5 24.5 24.5 24.5-10.992188 24.5-24.5-10.988281-24.5-24.5-24.5zm0 34c-5.238281 0-9.5-4.261719-9.5-9.5s4.261719-9.5 9.5-9.5 9.5 4.261719 9.5 9.5-4.261719 9.5-9.5 9.5zm0 0"/><path d="m369.5 15c70.304688 0 127.5 57.195312 127.5 127.5 0 4.140625 3.355469 7.5 7.5 7.5s7.5-3.359375 7.5-7.5c0-78.574219-63.925781-142.5-142.5-142.5-4.144531 0-7.5 3.359375-7.5 7.5s3.355469 7.5 7.5 7.5zm0 0"/><path d="m369.5 45c53.761719 0 97.5 43.738281 97.5 97.5 0 4.140625 3.355469 7.5 7.5 7.5s7.5-3.359375 7.5-7.5c0-62.03125-50.46875-112.5-112.5-112.5-4.144531 0-7.5 3.359375-7.5 7.5s3.355469 7.5 7.5 7.5zm0 0"/><path d="m369.5 75c37.21875 0 67.5 30.28125 67.5 67.5 0 4.140625 3.355469 7.5 7.5 7.5s7.5-3.359375 7.5-7.5c0-45.492188-37.011719-82.5-82.5-82.5-4.144531 0-7.5 3.359375-7.5 7.5s3.355469 7.5 7.5 7.5zm0 0"/><path d="m369.5 105c20.679688 0 37.5 16.820312 37.5 37.5 0 4.140625 3.355469 7.5 7.5 7.5s7.5-3.359375 7.5-7.5c0-28.949219-23.550781-52.5-52.5-52.5-4.144531 0-7.5 3.359375-7.5 7.5s3.355469 7.5 7.5 7.5zm0 0"/></svg>